<svg width="443.4" height="152.33960763286595" viewBox="0 0 370 127.12145878249977" class="looka-1j8o68f"><defs id="SvgjsDefs5790"><linearGradient id="SvgjsLinearGradient5797"><stop id="SvgjsStop5798" stop-color="#b98947" offset="0"></stop><stop id="SvgjsStop5799" stop-color="#faf0a1" offset="1"></stop></linearGradient><linearGradient id="SvgjsLinearGradient5800"><stop id="SvgjsStop5801" stop-color="#b98947" offset="0"></stop><stop id="SvgjsStop5802" stop-color="#faf0a1" offset="1"></stop></linearGradient><linearGradient id="SvgjsLinearGradient5803"><stop id="SvgjsStop5804" stop-color="#b98947" offset="0"></stop><stop id="SvgjsStop5805" stop-color="#faf0a1" offset="1"></stop></linearGradient></defs><g id="SvgjsG5791" featurekey="symbolFeature-0" transform="matrix(29.824036715748324,0,0,29.824036715748324,-24.575006282219036,-10.545182629475928)" fill="url(#SvgjsLinearGradient5797)"><g xmlns="http://www.w3.org/2000/svg"><path d="M3.726,1.855C3.44,2.127,3.042,2.237,2.661,2.292c-0.34,0.05-0.695,0.071-0.999,0.203C1.344,2.634,1.144,2.864,1.16,3.22   c0.01,0.214,0.125,0.423,0.287,0.584C1.492,3.84,1.538,3.874,1.586,3.905C1.583,3.899,1.58,3.892,1.575,3.886   C1.382,3.621,1.232,2.862,2.242,2.697C2.445,2.664,2.648,2.63,2.85,2.584c0.178-0.041,0.496-0.141,0.531-0.16   c0.029-0.017-0.189,0.228-0.857,0.42C1.463,3.149,1.789,4.03,2.113,4.131C2.237,4.161,2.367,4.176,2.5,4.176   c0.926,0,1.677-0.75,1.677-1.676c0-0.333-0.097-0.643-0.264-0.903C3.868,1.695,3.805,1.779,3.726,1.855z"></path><path d="M0.824,2.5c0,0.184,0.03,0.359,0.084,0.525c0.02-0.182,0.082-0.354,0.198-0.5c0.21-0.267,0.536-0.392,0.875-0.459   C2.319,2,2.679,1.992,3.026,1.908c0.192-0.046,0.387-0.121,0.542-0.244C3.697,1.56,3.757,1.402,3.623,1.255   C3.574,1.211,3.522,1.169,3.468,1.131c0.098,0.201,0.022,0.5-0.773,0.578C2.491,1.73,2.288,1.749,2.087,1.777   C2.028,1.785,1.955,1.796,1.88,1.809c0,0,0.066-0.082,0.532-0.188c0.958-0.216,0.779-0.633,0.495-0.748   c-0.13-0.032-0.267-0.05-0.407-0.05C1.574,0.824,0.824,1.574,0.824,2.5z"></path></g></g><g id="SvgjsG5792" featurekey="HWvxnO-0" transform="matrix(3.5796107260728234,0,0,3.5796107260728234,119.99999829310859,0.00000682756562437596)" fill="url(#SvgjsLinearGradient5800)"><path d="M32.66 23.06 c0.02 -0.02 0.08 -0.02 0.12 -0.02 c0.12 0 0.24 0.04 0.24 0.14 c0 0.06 -0.02 0.12 -0.1 0.2 c-0.34 0.32 -2.58 3.58 -5.84 3.58 c-3.7 0 -5.08 -2.88 -5.08 -6.76 c0 -2.62 0.62 -5.68 1.58 -8.64 c-0.74 0.36 -1.46 0.52 -2.2 0.52 c-0.4 0 -0.78 -0.04 -1.18 -0.12 c-3.84 5.12 -8.28 10.04 -13.3 10.04 c-4.88 0 -6.9 -2.82 -6.9 -6.46 c0 -6.48 6.46 -15.54 14.68 -15.54 c3.36 0 4.78 2.22 4.78 4.9 c0 1.8 -0.64 3.82 -1.78 5.48 c0.7 0.22 1.4 0.44 2.1 0.6 c4.1 -5.44 7.84 -10.98 11.2 -10.98 c0.22 0 0.3 0.1 0.3 0.22 c0 0.14 -0.16 0.32 -0.44 0.32 c-2.36 0 -7.02 12.42 -7.02 20.06 c0 3.4 0.92 5.86 3.38 5.86 c2.74 0 5.46 -3.4 5.46 -3.4 z M6.82 21.48 c4.44 0 8.58 -4.74 12.4 -9.78 c-0.66 -0.18 -1.32 -0.44 -1.96 -0.72 c-1.4 1.78 -3.4 3.04 -5.74 3.04 c-1.84 0 -2.7 -0.94 -2.7 -1.98 c0 -1.3 1.38 -2.8 3.94 -2.8 c1.3 0 2.82 0.48 4.38 0.98 c1.08 -1.6 1.68 -3.54 1.68 -5.28 c0 -2.46 -1.24 -4.48 -4.12 -4.48 c-7.22 0 -13.24 9.22 -13.24 15.44 c0 3.18 1.58 5.58 5.36 5.58 z M12.6 9.6 c-1.94 0 -3.18 1.34 -3.18 2.46 c0 0.8 0.66 1.5 2.16 1.5 c2.1 0 3.9 -1.16 5.16 -2.8 c-1.42 -0.58 -2.82 -1.16 -4.14 -1.16 z M20.78 11.18 c0.42 0.06 0.84 0.1 1.24 0.1 c0.62 0 1.22 -0.08 1.76 -0.32 c1.36 -4.04 3.32 -7.76 5.06 -9.64 c-2.34 1.66 -5.02 5.76 -8.06 9.86 z M36.3 15.26 l0.32 0.02 s-1.58 4.72 -4.06 4.72 c-1.12 0 -2.02 -0.8 -2.02 -2.24 c-0.7 1.14 -1.7 2.24 -2.9 2.24 c-1.08 0 -2.02 -0.78 -2.02 -2.16 c0 -0.98 2.72 -7.84 2.72 -7.84 l1.66 0 s-2.86 7.34 -2.86 8.52 c0 0.6 0.36 0.94 0.84 0.94 c1.16 0 2.4 -2.16 3.02 -3.38 c0.76 -2.34 2.24 -6.08 2.24 -6.08 l1.68 0 s-2.86 7.32 -2.86 8.5 c0 0.6 0.36 0.96 0.84 0.96 c1.6 0 3.4 -4.2 3.4 -4.2 z M44.82 15.26 l0.32 0.02 s-1.8 4.68 -3.86 4.68 c-1.32 0 -2.24 -0.72 -2.24 -2.18 c0 -0.58 1.5 -4.6 2.12 -6.2 c-0.22 0.04 -0.44 0.06 -0.66 0.06 c-0.76 0 -1.44 -0.24 -1.92 -0.66 l-2.28 5.16 l-0.38 0 l2.42 -5.38 c-0.3 -0.36 -0.48 -0.8 -0.48 -1.3 c0 -0.3 0.1 -0.58 0.1 -0.58 l1.3 0 s-0.1 0.32 -0.1 0.54 c0 0.84 1.04 1.22 2.06 1.22 c0.72 0 1.42 -0.18 1.76 -0.52 l0.3 0.32 c0.02 0 -2.72 7.24 -2.72 8.04 c0 0.6 0.36 0.94 0.84 0.94 c1.6 0 3.42 -4.14 3.42 -4.16 z M54.620000000000005 15.26 l0.32 0.02 s-1.58 4.72 -4.06 4.72 c-1.12 0 -2.02 -0.8 -2.02 -2.24 c-0.7 1.14 -1.7 2.24 -2.9 2.24 c-1.08 0 -2.02 -0.78 -2.02 -2.16 c0 -0.98 2.72 -7.84 2.72 -7.84 l1.66 0 s-2.86 7.34 -2.86 8.52 c0 0.6 0.36 0.94 0.84 0.94 c1.16 0 2.4 -2.16 3.02 -3.38 c0.76 -2.34 2.24 -6.08 2.24 -6.08 l1.68 0 s-2.86 7.32 -2.86 8.5 c0 0.6 0.36 0.96 0.84 0.96 c1.6 0 3.4 -4.2 3.4 -4.2 z M69.5 15.280000000000001 l0.34 0.02 s-1.78 4.7 -3.86 4.7 c-1.3 0 -2.22 -0.72 -2.22 -2.16 c0 -0.78 1.86 -5.94 1.86 -6.36 c0 -0.6 -0.36 -0.94 -0.84 -0.94 c-1.2 0 -2.5 2.34 -3.08 3.52 c-0.68 2.36 -1.88 5.94 -1.88 5.94 l-1.66 0 s2.44 -7.34 2.44 -8.52 c0 -0.6 -0.36 -0.94 -0.84 -0.94 c-1.18 0 -2.48 2.3 -3.06 3.5 l-1.98 5.96 l-1.78 0 l3.42 -10 l1.66 0 l-0.7 2.12 c0.7 -1.1 1.6 -2.12 2.58 -2.12 c1.3 0 2.22 0.72 2.22 2.16 c0 0.1 -0.02 0.24 -0.04 0.42 c0.7 -1.26 1.74 -2.58 2.84 -2.58 c1.28 0 2.22 0.72 2.22 2.16 c0 0.66 -1.86 5.24 -1.86 6.36 c0 0.6 0.36 0.94 0.84 0.94 c1.6 0 3.38 -4.18 3.38 -4.18 z"></path></g><g id="SvgjsG5793" featurekey="UyFMmJ-0" transform="matrix(0.7785736382683389,0,0,0.7785736382683389,119.76642706391928,111.34755669298185)" fill="url(#SvgjsLinearGradient5803)"><path d="M9.64 7.380000000000001 l0.44 0 l-0.7 2.72 l-0.54 0 c0.12 -1.42 0 -1.94 -0.82 -1.94 l-1.82 0 l0 10.58 c0 0.5 0.38 0.64 1.42 0.74 l0 0.52 c-1.54 -0.06 -3.2 -0.06 -4.74 0 l0 -0.52 c1.04 -0.1 1.42 -0.24 1.42 -0.74 l0 -10.58 l-1.64 0 c-0.82 0 -1.02 0.32 -1.82 1.94 l-0.54 0 l0.72 -2.72 l0.44 0 c0.5 0.14 0.76 0.2 1.7 0.2 l4.78 0 c0.94 0 1.22 -0.06 1.7 -0.2 z M22.740000000000002 8.08 c-1.04 0.12 -1.42 0.24 -1.42 0.74 l0 9.92 c0 0.5 0.38 0.64 1.42 0.74 l0 0.52 c-1.54 -0.06 -3.2 -0.06 -4.76 0 l0 -0.52 c1.06 -0.1 1.44 -0.24 1.44 -0.74 l0 -4.66 l-5.22 0 l0 4.66 c0 0.5 0.38 0.64 1.44 0.74 l0 0.52 c-1.56 -0.06 -3.2 -0.06 -4.76 0 l0 -0.52 c1.06 -0.1 1.44 -0.24 1.44 -0.74 l0 -9.92 c0 -0.5 -0.38 -0.62 -1.44 -0.74 l0 -0.5 c1.56 0.06 3.2 0.06 4.76 0 l0 0.5 c-1.06 0.12 -1.44 0.24 -1.44 0.74 l0 4.68 l5.22 0 l0 -4.68 c0 -0.5 -0.38 -0.62 -1.44 -0.74 l0 -0.5 c1.56 0.06 3.22 0.06 4.76 0 l0 0.5 z M32.300000000000004 16.9 l0.58 0 c-0.34 1.08 -0.5 2.06 -0.58 3.08 c-3 -0.04 -5.62 -0.04 -8.56 0 l0 -0.6 c1.06 -0.1 1.4 -0.2 1.4 -0.7 l0 -9.88 c0 -0.5 -0.34 -0.64 -1.4 -0.72 l0 -0.5 l8.22 0 c0.26 0 0.3 0.06 0.34 0.36 l0.24 2.12 l-0.54 0 l-0.2 -0.42 c-0.54 -1.04 -1.14 -1.46 -2.12 -1.46 l-2.48 0 c-0.1 0 -0.18 0.08 -0.18 0.18 l0 5.02 l2.62 0 c1 0 1.18 -0.54 1.36 -1.32 l0.5 0 c-0.1 1.08 -0.1 2.16 0 3.24 l-0.5 0 c-0.18 -0.8 -0.36 -1.32 -1.36 -1.32 l-2.62 0 l0 5.22 c0 0.1 0.08 0.16 0.18 0.16 l2.26 0 c1.18 0 1.8 -0.36 2.2 -1.18 z M44.900000000000006 17.46 c0 -1.6 -1.36 -2.3 -2.9 -3 c-1.9 -0.88 -3.5 -1.9 -3.5 -3.94 c0 -1.8 1.36 -3.26 3.68 -3.26 c1.5 0 2 0.46 2.46 0.46 c0.22 0 0.38 -0.04 0.46 -0.3 l0.52 0 l0.14 2.62 l-0.32 -0.02 c-0.22 -0.02 -0.32 -0.06 -0.42 -0.3 c-0.5 -1.06 -1.52 -1.88 -2.76 -1.88 c-1.36 0 -2.14 0.96 -2.14 2.06 c0 1.36 0.92 1.98 2.48 2.72 c1.64 0.76 4.14 1.68 4.14 4.16 c0 2.2 -2.04 3.48 -4 3.48 c-1.66 0 -2.46 -0.76 -3.04 -0.76 c-0.3 0 -0.5 0.2 -0.58 0.48 l-0.56 0 l-0.18 -2.8 l0.48 0 c0.18 0 0.26 0.08 0.36 0.3 c0.5 1.14 1.58 2.14 3.26 2.14 c1.5 0 2.42 -0.88 2.42 -2.16 z M53.480000000000004 7.26 c3.32 0 5.64 2.82 5.64 6.52 c0 3.66 -2.22 6.48 -5.54 6.48 s-5.64 -2.84 -5.64 -6.54 c0 -3.66 2.22 -6.46 5.54 -6.46 z M53.800000000000004 19.66 c1.64 0 3.28 -1.26 3.28 -5.3 c0 -3.8 -1.64 -6.52 -3.92 -6.52 c-1.54 0 -3.18 1.28 -3.18 5.32 c0 3.78 1.64 6.5 3.82 6.5 z M64.98 20.18 l-4.3 -11.38 c-0.18 -0.46 -0.4 -0.6 -1.46 -0.72 l0 -0.5 c1.6 0.06 3.1 0.06 4.68 0 l0 0.5 c-1.04 0.12 -1.42 0.26 -1.24 0.72 l3.36 8.78 l3.02 -8.78 c0.18 -0.5 -0.44 -0.6 -1.48 -0.72 l0 -0.5 c1.32 0.06 2.62 0.06 3.96 0 l0 0.5 c-1.06 0.12 -1.62 0.22 -1.8 0.72 l-4 11.38 l-0.74 0 z M80.78 16.9 l0.58 0 c-0.34 1.08 -0.5 2.06 -0.58 3.08 c-3 -0.04 -5.62 -0.04 -8.56 0 l0 -0.6 c1.06 -0.1 1.4 -0.2 1.4 -0.7 l0 -9.88 c0 -0.5 -0.34 -0.64 -1.4 -0.72 l0 -0.5 l8.22 0 c0.26 0 0.3 0.06 0.34 0.36 l0.24 2.12 l-0.54 0 l-0.2 -0.42 c-0.54 -1.04 -1.14 -1.46 -2.12 -1.46 l-2.48 0 c-0.1 0 -0.18 0.08 -0.18 0.18 l0 5.02 l2.62 0 c1 0 1.18 -0.54 1.36 -1.32 l0.5 0 c-0.1 1.08 -0.1 2.16 0 3.24 l-0.5 0 c-0.18 -0.8 -0.36 -1.32 -1.36 -1.32 l-2.62 0 l0 5.22 c0 0.1 0.08 0.16 0.18 0.16 l2.26 0 c1.18 0 1.8 -0.36 2.2 -1.18 z M89.91999999999999 17.12 c1.08 1.5 2.28 2.48 3.04 2.52 l-0.34 0.52 c-1.64 0 -2.88 -0.72 -4.32 -2.56 l-2.04 -2.64 c-0.06 0 -0.12 0.02 -0.18 0.02 l-0.56 0.06 l0 3.72 c0 0.5 0.34 0.64 1.4 0.72 l0 0.52 c-1.56 -0.06 -3.12 -0.06 -4.68 0 l0 -0.52 c1.06 -0.08 1.4 -0.22 1.4 -0.72 l0 -9.56 c0 -0.58 -0.28 -1 -1.36 -1.12 l0 -0.5 c1.74 0.08 3.56 0 4.82 0 c4.04 0 4.96 1.7 4.96 3.4 c0 1.42 -1.02 2.9 -3.94 3.64 z M85.52 8.18 l0 6.26 l0.6 -0.08 c3.1 -0.42 3.98 -1.76 3.98 -3.46 c0 -1.46 -0.84 -2.72 -2.78 -2.72 l-1.8 0 z M102.32 16.9 l0.58 0 c-0.34 1.08 -0.5 2.06 -0.58 3.08 c-3 -0.04 -5.62 -0.04 -8.56 0 l0 -0.6 c1.06 -0.1 1.4 -0.2 1.4 -0.7 l0 -9.88 c0 -0.5 -0.34 -0.64 -1.4 -0.72 l0 -0.5 l8.22 0 c0.26 0 0.3 0.06 0.34 0.36 l0.24 2.12 l-0.54 0 l-0.2 -0.42 c-0.54 -1.04 -1.14 -1.46 -2.12 -1.46 l-2.48 0 c-0.1 0 -0.18 0.08 -0.18 0.18 l0 5.02 l2.62 0 c1 0 1.18 -0.54 1.36 -1.32 l0.5 0 c-0.1 1.08 -0.1 2.16 0 3.24 l-0.5 0 c-0.18 -0.8 -0.36 -1.32 -1.36 -1.32 l-2.62 0 l0 5.22 c0 0.1 0.08 0.16 0.18 0.16 l2.26 0 c1.18 0 1.8 -0.36 2.2 -1.18 z M107.09999999999998 18.74 c0 0.5 0.38 0.64 1.44 0.74 l0 0.52 c-1.56 -0.06 -3.2 -0.06 -4.76 0 l0 -0.52 c1.06 -0.1 1.44 -0.24 1.44 -0.74 l0 -9.92 c0 -0.5 -0.38 -0.62 -1.44 -0.74 l0 -0.5 c1.56 0.06 3.2 0.06 4.76 0 l0 0.5 c-1.06 0.12 -1.44 0.24 -1.44 0.74 l0 9.92 z M116.41999999999999 14.120000000000001 c1.44 0.04 3.28 0.04 4.62 -0.02 l0 0.52 l-0.48 0.08 c-0.88 0.14 -0.78 1.02 -0.78 2.54 c0 0.6 0.02 1.22 0.06 1.76 l0.38 0.04 c0.1 0.02 0.14 0.08 0.14 0.16 l0 0.44 c-0.32 -0.06 -0.64 -0.06 -0.86 -0.06 c-1.5 0 -2.04 0.68 -4.2 0.68 c-3.4 0 -5.78 -2.84 -5.78 -6.54 c0 -3.68 2.28 -6.46 5.6 -6.46 c1.4 0 1.78 0.38 3 0.38 c0.2 0 0.32 0 0.6 -0.04 c0.22 1.14 0.5 2.18 1.04 3.4 l-0.92 0 c-0.82 -1.98 -1.96 -3.16 -4 -3.16 c-1.58 0 -3.28 1.28 -3.28 5.32 c0 3.78 1.7 6.5 3.88 6.5 c2.5 0 2.58 -0.88 2.58 -3.42 c0 -1.24 0.06 -1.46 -1.08 -1.56 l-0.52 -0.06 l0 -0.5 z M128.84 7.58 c1.42 0.06 2.88 0.06 4.3 0 l0 0.5 c-1.24 0.14 -1.8 0.24 -1.8 0.74 l0 11.18 l-0.54 0 l-6.98 -10.72 l0 9.46 c0 0.5 0.58 0.62 1.82 0.74 l0 0.52 c-1.44 -0.06 -2.88 -0.06 -4.3 0 l0 -0.52 c1.28 -0.12 1.8 -0.24 1.8 -0.74 l0 -9.8 c0 -0.54 -0.52 -0.74 -1.58 -0.86 l0 -0.5 c1.14 0.06 2.26 0.06 3.4 0 l5.7 8.82 l0 -7.58 c0 -0.5 -0.52 -0.6 -1.82 -0.74 l0 -0.5 z M141.66 18.74 c0 0.5 0.38 0.64 1.44 0.74 l0 0.52 c-1.56 -0.06 -3.2 -0.06 -4.76 0 l0 -0.52 c1.06 -0.1 1.44 -0.24 1.44 -0.74 l0 -9.92 c0 -0.5 -0.38 -0.62 -1.44 -0.74 l0 -0.5 c1.56 0.06 3.2 0.06 4.76 0 l0 0.5 c-1.06 0.12 -1.44 0.24 -1.44 0.74 l0 9.92 z M151.4 7.58 c1.42 0.06 2.88 0.06 4.3 0 l0 0.5 c-1.24 0.14 -1.8 0.24 -1.8 0.74 l0 11.18 l-0.54 0 l-6.98 -10.72 l0 9.46 c0 0.5 0.58 0.62 1.82 0.74 l0 0.52 c-1.44 -0.06 -2.88 -0.06 -4.3 0 l0 -0.52 c1.28 -0.12 1.8 -0.24 1.8 -0.74 l0 -9.8 c0 -0.54 -0.52 -0.74 -1.58 -0.86 l0 -0.5 c1.14 0.06 2.26 0.06 3.4 0 l5.7 8.82 l0 -7.58 c0 -0.5 -0.52 -0.6 -1.82 -0.74 l0 -0.5 z M165.64 7.380000000000001 l0.44 0 l-0.7 2.72 l-0.54 0 c0.12 -1.42 0 -1.94 -0.82 -1.94 l-1.82 0 l0 10.58 c0 0.5 0.38 0.64 1.42 0.74 l0 0.52 c-1.54 -0.06 -3.2 -0.06 -4.74 0 l0 -0.52 c1.04 -0.1 1.42 -0.24 1.42 -0.74 l0 -10.58 l-1.64 0 c-0.82 0 -1.02 0.32 -1.82 1.94 l-0.54 0 l0.72 -2.72 l0.44 0 c0.5 0.14 0.76 0.2 1.7 0.2 l4.78 0 c0.94 0 1.22 -0.06 1.7 -0.2 z M175.44 16.9 l0.58 0 c-0.34 1.08 -0.5 2.06 -0.58 3.08 c-3 -0.04 -5.62 -0.04 -8.56 0 l0 -0.6 c1.06 -0.1 1.4 -0.2 1.4 -0.7 l0 -9.88 c0 -0.5 -0.34 -0.64 -1.4 -0.72 l0 -0.5 l8.22 0 c0.26 0 0.3 0.06 0.34 0.36 l0.24 2.12 l-0.54 0 l-0.2 -0.42 c-0.54 -1.04 -1.14 -1.46 -2.12 -1.46 l-2.48 0 c-0.1 0 -0.18 0.08 -0.18 0.18 l0 5.02 l2.62 0 c1 0 1.18 -0.54 1.36 -1.32 l0.5 0 c-0.1 1.08 -0.1 2.16 0 3.24 l-0.5 0 c-0.18 -0.8 -0.36 -1.32 -1.36 -1.32 l-2.62 0 l0 5.22 c0 0.1 0.08 0.16 0.18 0.16 l2.26 0 c1.18 0 1.8 -0.36 2.2 -1.18 z M185.48000000000002 16.92 l0.58 0 c-0.34 1.1 -0.5 2.06 -0.58 3.08 c-3 -0.06 -5.7 -0.06 -8.64 0 l0 -0.58 c1.06 -0.12 1.4 -0.22 1.4 -0.72 l0 -9.88 c0 -0.5 -0.38 -0.62 -1.44 -0.74 l0 -0.5 c1.56 0.06 3.2 0.06 4.76 0 l0 0.5 c-1.06 0.12 -1.44 0.24 -1.44 0.74 l0 10.4 c0 0.1 0.08 0.16 0.18 0.16 l2.34 0 c1.18 0 1.8 -0.34 2.2 -1.18 z M195.32000000000002 16.92 l0.58 0 c-0.34 1.1 -0.5 2.06 -0.58 3.08 c-3 -0.06 -5.7 -0.06 -8.64 0 l0 -0.58 c1.06 -0.12 1.4 -0.22 1.4 -0.72 l0 -9.88 c0 -0.5 -0.38 -0.62 -1.44 -0.74 l0 -0.5 c1.56 0.06 3.2 0.06 4.76 0 l0 0.5 c-1.06 0.12 -1.44 0.24 -1.44 0.74 l0 10.4 c0 0.1 0.08 0.16 0.18 0.16 l2.34 0 c1.18 0 1.8 -0.34 2.2 -1.18 z M199.9 18.74 c0 0.5 0.38 0.64 1.44 0.74 l0 0.52 c-1.56 -0.06 -3.2 -0.06 -4.76 0 l0 -0.52 c1.06 -0.1 1.44 -0.24 1.44 -0.74 l0 -9.92 c0 -0.5 -0.38 -0.62 -1.44 -0.74 l0 -0.5 c1.56 0.06 3.2 0.06 4.76 0 l0 0.5 c-1.06 0.12 -1.44 0.24 -1.44 0.74 l0 9.92 z M209.22 14.120000000000001 c1.44 0.04 3.28 0.04 4.62 -0.02 l0 0.52 l-0.48 0.08 c-0.88 0.14 -0.78 1.02 -0.78 2.54 c0 0.6 0.02 1.22 0.06 1.76 l0.38 0.04 c0.1 0.02 0.14 0.08 0.14 0.16 l0 0.44 c-0.32 -0.06 -0.64 -0.06 -0.86 -0.06 c-1.5 0 -2.04 0.68 -4.2 0.68 c-3.4 0 -5.78 -2.84 -5.78 -6.54 c0 -3.68 2.28 -6.46 5.6 -6.46 c1.4 0 1.78 0.38 3 0.38 c0.2 0 0.32 0 0.6 -0.04 c0.22 1.14 0.5 2.18 1.04 3.4 l-0.92 0 c-0.82 -1.98 -1.96 -3.16 -4 -3.16 c-1.58 0 -3.28 1.28 -3.28 5.32 c0 3.78 1.7 6.5 3.88 6.5 c2.5 0 2.58 -0.88 2.58 -3.42 c0 -1.24 0.06 -1.46 -1.08 -1.56 l-0.52 -0.06 l0 -0.5 z M223.08 16.9 l0.58 0 c-0.34 1.08 -0.5 2.06 -0.58 3.08 c-3 -0.04 -5.62 -0.04 -8.56 0 l0 -0.6 c1.06 -0.1 1.4 -0.2 1.4 -0.7 l0 -9.88 c0 -0.5 -0.34 -0.64 -1.4 -0.72 l0 -0.5 l8.22 0 c0.26 0 0.3 0.06 0.34 0.36 l0.24 2.12 l-0.54 0 l-0.2 -0.42 c-0.54 -1.04 -1.14 -1.46 -2.12 -1.46 l-2.48 0 c-0.1 0 -0.18 0.08 -0.18 0.18 l0 5.02 l2.62 0 c1 0 1.18 -0.54 1.36 -1.32 l0.5 0 c-0.1 1.08 -0.1 2.16 0 3.24 l-0.5 0 c-0.18 -0.8 -0.36 -1.32 -1.36 -1.32 l-2.62 0 l0 5.22 c0 0.1 0.08 0.16 0.18 0.16 l2.26 0 c1.18 0 1.8 -0.36 2.2 -1.18 z M232.06000000000003 7.58 c1.42 0.06 2.88 0.06 4.3 0 l0 0.5 c-1.24 0.14 -1.8 0.24 -1.8 0.74 l0 11.18 l-0.54 0 l-6.98 -10.72 l0 9.46 c0 0.5 0.58 0.62 1.82 0.74 l0 0.52 c-1.44 -0.06 -2.88 -0.06 -4.3 0 l0 -0.52 c1.28 -0.12 1.8 -0.24 1.8 -0.74 l0 -9.8 c0 -0.54 -0.52 -0.74 -1.58 -0.86 l0 -0.5 c1.14 0.06 2.26 0.06 3.4 0 l5.7 8.82 l0 -7.58 c0 -0.5 -0.52 -0.6 -1.82 -0.74 l0 -0.5 z M246.46000000000004 16.64 l0.68 0 c-0.46 1.76 -1.72 3.62 -4.68 3.62 c-3.4 0 -5.8 -2.84 -5.8 -6.54 c0 -3.68 2.28 -6.46 5.6 -6.46 c1.48 0 1.86 0.38 3.08 0.38 c0.2 0 0.32 0 0.6 -0.04 c0.22 1.14 0.5 2.18 1.04 3.4 l-0.92 0 c-0.82 -1.98 -2 -3.16 -4.16 -3.16 c-1.5 0 -3.2 1.28 -3.2 5.32 c0 3.8 1.6 6.42 3.96 6.42 c1.9 0 3.16 -0.94 3.8 -2.94 z M256.6 16.9 l0.58 0 c-0.34 1.08 -0.5 2.06 -0.58 3.08 c-3 -0.04 -5.62 -0.04 -8.56 0 l0 -0.6 c1.06 -0.1 1.4 -0.2 1.4 -0.7 l0 -9.88 c0 -0.5 -0.34 -0.64 -1.4 -0.72 l0 -0.5 l8.22 0 c0.26 0 0.3 0.06 0.34 0.36 l0.24 2.12 l-0.54 0 l-0.2 -0.42 c-0.54 -1.04 -1.14 -1.46 -2.12 -1.46 l-2.48 0 c-0.1 0 -0.18 0.08 -0.18 0.18 l0 5.02 l2.62 0 c1 0 1.18 -0.54 1.36 -1.32 l0.5 0 c-0.1 1.08 -0.1 2.16 0 3.24 l-0.5 0 c-0.18 -0.8 -0.36 -1.32 -1.36 -1.32 l-2.62 0 l0 5.22 c0 0.1 0.08 0.16 0.18 0.16 l2.26 0 c1.18 0 1.8 -0.36 2.2 -1.18 z"></path></g></svg>